<svg width="19" height="19" viewBox="0 0 19 19" fill="none" xmlns="http://www.w3.org/2000/svg">
<path fill-rule="evenodd" clip-rule="evenodd" d="M16.6249 13.3948V15.7698C16.6267 16.2156 16.4405 16.6415 16.112 16.9429C15.7834 17.2443 15.3431 17.3932 14.8991 17.3531C12.463 17.0884 10.1229 16.2559 8.06697 14.9227C6.15417 13.7072 4.53245 12.0855 3.31697 10.1727C1.97904 8.10737 1.14642 5.75596 0.886558 3.30892C0.846558 2.86628 0.99444 2.4272 1.29408 2.09895C1.59372 1.7707 2.01753 1.5835 2.46197 1.58309H4.83697C5.6317 1.57526 6.30908 2.15781 6.42031 2.94475C6.52055 3.7048 6.70646 4.45108 6.97447 5.16934C7.19197 5.74794 7.05286 6.40022 6.61822 6.83975L5.61281 7.84517C6.73979 9.82714 8.38083 11.4682 10.3628 12.5952L11.3682 11.5898C11.8078 11.1551 12.46 11.016 13.0386 11.2335C13.7569 11.5015 14.5032 11.6874 15.2632 11.7877C16.0593 11.9 16.6448 12.591 16.6249 13.3948Z" stroke="#2B2A29" stroke-linecap="round" stroke-linejoin="round"/>
</svg>
