<svg width="19" height="19" fill="none" xmlns="http://www.w3.org/2000/svg"><path clip-rule="evenodd" d="M16.625 13.395v2.375a1.583 1.583 0 01-1.726 1.583 15.668 15.668 0 01-6.832-2.43 15.438 15.438 0 01-4.75-4.75 15.667 15.667 0 01-2.43-6.864 1.583 1.583 0 011.575-1.726h2.375A1.583 1.583 0 016.42 2.945c.1.76.286 1.506.554 2.224a1.58 1.58 0 01-.356 1.67L5.613 7.846a12.667 12.667 0 004.75 4.75l1.005-1.005a1.583 1.583 0 011.67-.357 10.17 10.17 0 002.225.555 1.583 1.583 0 011.362 1.607z" stroke="#2B2A29" stroke-linecap="round" stroke-linejoin="round"/></svg>