<svg width="35" height="35" viewBox="0 0 35 35" fill="none" xmlns="http://www.w3.org/2000/svg">
<circle cx="17.5" cy="17.5" r="17.5" fill="#FFD700"/>
<path d="M18 33.1279C16.0125 33.1315 14.044 32.7424 12.2073 31.983C10.3707 31.2235 8.70221 30.1086 7.29772 28.7024C7.21895 28.6209 7.17536 28.5116 7.17635 28.3983C7.17733 28.2849 7.22281 28.1764 7.30299 28.0962C7.38316 28.0161 7.49162 27.9706 7.60501 27.9696C7.71839 27.9686 7.82762 28.0122 7.90918 28.091C10.2604 30.4412 13.3583 31.8969 16.6683 32.2069C19.9782 32.517 23.2925 31.6619 26.0393 29.7892C28.7861 27.9165 30.7931 25.1438 31.7139 21.9494C32.6346 18.755 32.4114 15.3395 31.0828 12.2921C31.0597 12.24 31.0472 12.1838 31.0459 12.1269C31.0446 12.0699 31.0546 12.0132 31.0752 11.9601C31.0959 11.907 31.1269 11.8585 31.1663 11.8174C31.2058 11.7764 31.253 11.7435 31.3052 11.7207C31.3575 11.6979 31.4137 11.6856 31.4706 11.6846C31.5276 11.6836 31.5842 11.6939 31.6372 11.7149C31.6902 11.7358 31.7385 11.767 31.7794 11.8067C31.8203 11.8464 31.8529 11.8938 31.8755 11.9461C32.8806 14.2493 33.2963 16.7665 33.0849 19.2706C32.8736 21.7746 32.0418 24.1866 30.6648 26.2887C29.2878 28.3907 27.4089 30.1167 25.1978 31.3108C22.9867 32.5049 20.5129 33.1294 18 33.1279Z" fill="black"/>
<path d="M4.16886 23.43C4.07986 23.43 3.99303 23.4025 3.9202 23.3514C3.84738 23.3002 3.79211 23.2278 3.76194 23.1441C2.59267 19.9067 2.5617 16.3674 3.67412 13.11C4.78654 9.8526 6.97593 7.07159 9.8812 5.22563C12.7865 3.37967 16.2341 2.57901 19.6556 2.95568C23.077 3.33235 26.2679 4.86386 28.7021 7.29763C28.7808 7.37919 28.8244 7.48842 28.8234 7.60181C28.8224 7.71519 28.777 7.82365 28.6968 7.90382C28.6166 7.984 28.5081 8.02948 28.3948 8.03046C28.2814 8.03145 28.1721 7.98786 28.0906 7.90909C25.4144 5.2329 21.7847 3.72944 18 3.72944C14.2153 3.72944 10.5856 5.2329 7.9094 7.90909C5.99863 9.83005 4.67134 12.2532 4.08133 14.8976C3.49132 17.542 3.66276 20.2995 4.57578 22.8505C4.5994 22.9158 4.60693 22.9859 4.59774 23.0547C4.58855 23.1236 4.56292 23.1892 4.523 23.246C4.48308 23.3029 4.43006 23.3493 4.36841 23.3813C4.30677 23.4133 4.23832 23.43 4.16886 23.43Z" fill="black"/>
<path d="M28.3966 8.03598H25.5287C25.4141 8.03598 25.3041 7.99042 25.223 7.90932C25.1419 7.82823 25.0963 7.71824 25.0963 7.60355C25.0963 7.48886 25.1419 7.37887 25.223 7.29777C25.3041 7.21668 25.4141 7.17112 25.5287 7.17112H27.9642V4.73566C27.9642 4.62097 28.0098 4.51098 28.0909 4.42988C28.172 4.34878 28.2819 4.30322 28.3966 4.30322C28.5113 4.30322 28.6213 4.34878 28.7024 4.42988C28.7835 4.51098 28.8291 4.62097 28.8291 4.73566V7.60355C28.8291 7.71824 28.7835 7.82823 28.7024 7.90932C28.6213 7.99042 28.5113 8.03598 28.3966 8.03598Z" fill="black"/>
<path d="M7.60345 31.6971C7.48876 31.6971 7.37877 31.6516 7.29768 31.5705C7.21658 31.4894 7.17102 31.3794 7.17102 31.2647V28.3968C7.17102 28.2821 7.21658 28.1721 7.29768 28.091C7.37877 28.0099 7.48876 27.9644 7.60345 27.9644H10.4713C10.586 27.9644 10.696 28.0099 10.7771 28.091C10.8582 28.1721 10.9038 28.2821 10.9038 28.3968C10.9038 28.5115 10.8582 28.6215 10.7771 28.7026C10.696 28.7837 10.586 28.8292 10.4713 28.8292H8.03588V31.2647C8.03588 31.3794 7.99033 31.4894 7.90923 31.5705C7.82813 31.6516 7.71814 31.6971 7.60345 31.6971Z" fill="black"/>
<path d="M24.8678 22.7235H15.6708C15.1176 22.7212 14.5816 22.5304 14.1513 22.1826C13.721 21.8349 13.422 21.3509 13.3037 20.8104L11.3249 11.5948H9.40228C9.28759 11.5948 9.1776 11.5493 9.0965 11.4682C9.01541 11.3871 8.96985 11.2771 8.96985 11.1624C8.96985 11.0477 9.01541 10.9377 9.0965 10.8566C9.1776 10.7755 9.28759 10.73 9.40228 10.73H11.6747C11.7737 10.73 11.8696 10.7638 11.9466 10.826C12.0235 10.8882 12.0769 10.9749 12.0976 11.0716L14.1495 20.6284C14.2257 20.9757 14.4179 21.2868 14.6945 21.5102C14.9712 21.7337 15.3156 21.8563 15.6713 21.8578H24.8678C24.9825 21.8578 25.0925 21.9033 25.1736 21.9844C25.2547 22.0655 25.3002 22.1755 25.3002 22.2902C25.3002 22.4049 25.2547 22.5149 25.1736 22.596C25.0925 22.6771 24.9825 22.7226 24.8678 22.7226V22.7235Z" fill="black"/>
<path d="M22.7491 19.7509H13.4228C13.3081 19.7509 13.1981 19.7053 13.117 19.6242C13.0359 19.5431 12.9903 19.4331 12.9903 19.3184C12.9903 19.2038 13.0359 19.0938 13.117 19.0127C13.1981 18.9316 13.3081 18.886 13.4228 18.886H22.7491C22.9567 18.8871 23.1579 18.8134 23.3157 18.6785C23.4736 18.5435 23.5776 18.3562 23.6087 18.1509L24.2673 13.8966H12.1666C12.0519 13.8966 11.9419 13.851 11.8608 13.7699C11.7797 13.6888 11.7341 13.5789 11.7341 13.4642C11.7341 13.3495 11.7797 13.2395 11.8608 13.1584C11.9419 13.0773 12.0519 13.0317 12.1666 13.0317H24.772C24.8343 13.0318 24.896 13.0453 24.9526 13.0713C25.0093 13.0974 25.0597 13.1354 25.1002 13.1828C25.1408 13.2302 25.1707 13.2857 25.1878 13.3457C25.2048 13.4057 25.2088 13.4687 25.1992 13.5303L24.4641 18.2832C24.4021 18.693 24.1947 19.0668 23.8798 19.3363C23.5649 19.6058 23.1635 19.7529 22.7491 19.7509Z" fill="black"/>
<path d="M22.6252 26.9993C22.2758 26.9992 21.9343 26.8955 21.6439 26.7014C21.3535 26.5072 21.1271 26.2313 20.9935 25.9085C20.8598 25.5857 20.8249 25.2305 20.8931 24.8879C20.9613 24.5453 21.1296 24.2306 21.3767 23.9835C21.6237 23.7365 21.9385 23.5683 22.2811 23.5002C22.6238 23.4321 22.979 23.4671 23.3017 23.6008C23.6245 23.7345 23.9003 23.9609 24.0944 24.2514C24.2885 24.5419 24.3921 24.8834 24.3921 25.2328C24.3915 25.7012 24.2052 26.1502 23.8739 26.4814C23.5427 26.8126 23.0936 26.9988 22.6252 26.9993ZM22.6252 24.3307C22.4469 24.3308 22.2726 24.3838 22.1244 24.4829C21.9762 24.582 21.8607 24.7229 21.7925 24.8876C21.7243 25.0524 21.7065 25.2337 21.7414 25.4085C21.7762 25.5834 21.8621 25.744 21.9882 25.8701C22.1143 25.9961 22.275 26.0819 22.4499 26.1167C22.6248 26.1515 22.806 26.1336 22.9707 26.0653C23.1355 25.9971 23.2763 25.8815 23.3753 25.7332C23.4744 25.585 23.5272 25.4107 23.5272 25.2324C23.5269 24.9933 23.4317 24.7641 23.2626 24.595C23.0935 24.426 22.8643 24.331 22.6252 24.3307Z" fill="black"/>
<path d="M16.5914 26.9993C16.242 26.9993 15.9005 26.8957 15.61 26.7016C15.3195 26.5075 15.0931 26.2316 14.9594 25.9088C14.8257 25.586 14.7907 25.2308 14.8588 24.8882C14.927 24.5455 15.0952 24.2307 15.3423 23.9837C15.5893 23.7367 15.9041 23.5684 16.2468 23.5003C16.5894 23.4321 16.9446 23.4671 17.2674 23.6008C17.5902 23.7345 17.8661 23.9609 18.0602 24.2514C18.2543 24.5419 18.3579 24.8834 18.3579 25.2328C18.3573 25.7011 18.171 26.1501 17.8398 26.4813C17.5087 26.8124 17.0597 26.9987 16.5914 26.9993ZM16.5914 24.3307C16.4131 24.3307 16.2387 24.3836 16.0905 24.4827C15.9422 24.5818 15.8266 24.7226 15.7584 24.8873C15.6901 25.0521 15.6723 25.2334 15.7071 25.4083C15.7419 25.5832 15.8277 25.7438 15.9538 25.8699C16.0799 25.996 16.2406 26.0819 16.4155 26.1167C16.5904 26.1515 16.7717 26.1336 16.9364 26.0654C17.1012 25.9971 17.242 25.8816 17.341 25.7333C17.4401 25.585 17.493 25.4107 17.493 25.2324C17.4927 24.9933 17.3976 24.7642 17.2285 24.5952C17.0595 24.4262 16.8304 24.3311 16.5914 24.3307Z" fill="black"/>
<circle cx="24" cy="15" r="4" fill="#FEFEFE"/>
<path d="M25.313 18H24.2495V12.8628L22.6807 13.3989V12.498L25.1768 11.5796H25.313V18Z" fill="black"/>
</svg>
