<svg width="15" height="15" viewBox="0 0 15 15" fill="none" xmlns="http://www.w3.org/2000/svg">
<path d="M11.1018 9.15323C10.8398 8.88172 10.5239 8.73656 10.1891 8.73656C9.85697 8.73656 9.53834 8.87903 9.26562 9.15054L8.41236 9.99731C8.34215 9.95968 8.27195 9.92473 8.20444 9.88979C8.10724 9.8414 8.01543 9.7957 7.93712 9.74731C7.13787 9.24194 6.41151 8.58333 5.71486 7.73118C5.37733 7.30645 5.15052 6.94892 4.98581 6.58602C5.20722 6.38441 5.41244 6.17473 5.61225 5.97312C5.68786 5.89785 5.76346 5.81989 5.83907 5.74462C6.40611 5.18011 6.40611 4.44892 5.83907 3.88441L5.10191 3.15054C5.01821 3.0672 4.9318 2.98118 4.8508 2.89516C4.68878 2.72849 4.51867 2.55645 4.34316 2.39516C4.08124 2.1371 3.76802 2 3.43859 2C3.10917 2 2.79054 2.1371 2.52052 2.39516C2.51782 2.39785 2.51782 2.39785 2.51512 2.40054L1.59705 3.32258C1.25143 3.66667 1.05431 4.08602 1.01111 4.57258C0.946306 5.35753 1.17852 6.08871 1.35674 6.5672C1.79417 7.74194 2.44762 8.83065 3.42239 9.99731C4.60508 11.4032 6.02808 12.5134 7.6536 13.2957C8.27465 13.5887 9.10361 13.9355 10.0298 13.9946C10.0865 13.9973 10.1459 14 10.1999 14C10.8236 14 11.3475 13.7769 11.7579 13.3333C11.7606 13.328 11.766 13.3253 11.7687 13.3199C11.9091 13.1505 12.0711 12.9973 12.2412 12.8333C12.3574 12.7231 12.4762 12.6075 12.5923 12.4866C12.8596 12.2097 13 11.8871 13 11.5565C13 11.2231 12.8569 10.9032 12.5842 10.6344L11.1018 9.15323ZM12.0684 11.9839C12.0657 11.9839 12.0657 11.9866 12.0684 11.9839C11.9631 12.0968 11.8551 12.1989 11.739 12.3118C11.5635 12.4785 11.3853 12.6532 11.2179 12.8495C10.9451 13.1398 10.6238 13.2769 10.2026 13.2769C10.1621 13.2769 10.1189 13.2769 10.0784 13.2742C9.27642 13.2231 8.53117 12.9113 7.97223 12.6452C6.44391 11.9086 5.10191 10.8629 3.98673 9.53763C3.06596 8.4328 2.45032 7.41129 2.04259 6.31452C1.79147 5.64516 1.69966 5.12366 1.74016 4.63172C1.76717 4.3172 1.88868 4.05645 2.11279 3.83333L3.03356 2.91667C3.16587 2.79301 3.30628 2.72581 3.44399 2.72581C3.6141 2.72581 3.75181 2.82796 3.83822 2.91398C3.84092 2.91667 3.84362 2.91935 3.84632 2.92204C4.01103 3.07527 4.16764 3.23387 4.33236 3.40323C4.41606 3.48925 4.50247 3.57527 4.58888 3.66398L5.32603 4.39785C5.61225 4.6828 5.61225 4.94624 5.32603 5.23118C5.24772 5.30914 5.17212 5.3871 5.09381 5.46237C4.867 5.69355 4.65098 5.9086 4.41606 6.11828C4.41066 6.12366 4.40526 6.12634 4.40256 6.13172C4.17035 6.3629 4.21355 6.58871 4.26215 6.74194C4.26485 6.75 4.26755 6.75806 4.27025 6.76613C4.46197 7.22849 4.73199 7.66398 5.14242 8.1828L5.14512 8.18548C5.89037 9.09946 6.67613 9.81183 7.5429 10.3575C7.6536 10.4274 7.76701 10.4839 7.87502 10.5376C7.97223 10.586 8.06403 10.6317 8.14234 10.6801C8.15314 10.6855 8.16394 10.6935 8.17474 10.6989C8.26655 10.7446 8.35295 10.7661 8.44206 10.7661C8.66618 10.7661 8.80659 10.6263 8.85249 10.5806L9.77596 9.66129C9.86777 9.56989 10.0136 9.45968 10.1837 9.45968C10.3511 9.45968 10.4888 9.56452 10.5725 9.65591C10.5752 9.6586 10.5752 9.6586 10.5779 9.66129L12.0657 11.1425C12.3439 11.4167 12.3439 11.6989 12.0684 11.9839Z" fill="#3D403E"/>
<path d="M8.31128 3.75026C9.04521 3.87353 9.71191 4.22091 10.2442 4.7532C10.7764 5.28548 11.1209 5.95224 11.247 6.68623C11.2778 6.87113 11.4375 7 11.6196 7C11.642 7 11.6616 6.9972 11.684 6.9944C11.8913 6.96078 12.0286 6.76467 11.9949 6.55736C11.8437 5.66929 11.4235 4.85966 10.782 4.21811C10.1405 3.57657 9.33094 3.15634 8.44294 3.00506C8.23565 2.97145 8.04236 3.10872 8.00595 3.31323C7.96953 3.51774 8.10399 3.71664 8.31128 3.75026Z" fill="#3D403E"/>
<path d="M13.9945 6.58327C13.7568 5.18883 13.0999 3.91994 12.0905 2.91017C11.0811 1.9004 9.81268 1.24325 8.41873 1.0055C8.2238 0.970771 8.03954 1.10434 8.00482 1.29935C7.97278 1.49703 8.10363 1.68135 8.30124 1.71608C9.54564 1.92711 10.6806 2.51748 11.5831 3.41772C12.4857 4.32064 13.0732 5.45596 13.2842 6.70081C13.3136 6.87712 13.4658 7 13.6393 7C13.6607 7 13.6794 6.99733 13.7008 6.99466C13.8957 6.96527 14.0292 6.77828 13.9945 6.58327Z" fill="#3D403E"/>
</svg>
