<svg width="35" height="35" fill="none" xmlns="http://www.w3.org/2000/svg"><circle cx="17.5" cy="17.5" r="17.5" fill="gold"/><path d="M18 33.128a15.089 15.089 0 01-10.702-4.426.432.432 0 01.611-.611 14.272 14.272 0 0023.174-15.799.432.432 0 11.793-.346A15.13 15.13 0 0118 33.128zM4.169 23.43a.433.433 0 01-.407-.286 15.137 15.137 0 0124.94-15.846.433.433 0 01-.611.611 14.27 14.27 0 00-20.182 0 14.337 14.337 0 00-3.333 14.942.432.432 0 01-.407.579z" fill="#000"/><path d="M28.397 8.036h-2.868a.432.432 0 010-.865h2.435V4.736a.432.432 0 01.865 0v2.868a.432.432 0 01-.432.432zM7.603 31.697a.432.432 0 01-.432-.432v-2.868a.432.432 0 01.432-.433h2.868a.432.432 0 110 .865H8.036v2.436a.432.432 0 01-.433.432zm17.265-8.973H15.67a2.433 2.433 0 01-2.367-1.914l-1.98-9.215h-1.92a.432.432 0 110-.865h2.273a.432.432 0 01.423.342l2.051 9.556a1.564 1.564 0 001.522 1.23h9.197a.432.432 0 110 .865z" fill="#000"/><path d="M22.75 19.75h-9.327a.433.433 0 010-.864h9.326a.865.865 0 00.86-.735l.658-4.254h-12.1a.433.433 0 010-.865h12.605a.435.435 0 01.427.498l-.735 4.753a1.726 1.726 0 01-1.715 1.468zM22.625 27a1.767 1.767 0 11.001-3.534 1.767 1.767 0 010 3.533zm0-2.67a.902.902 0 10.001 1.805.902.902 0 000-1.804zM16.591 27a1.766 1.766 0 110-3.534 1.766 1.766 0 010 3.533zm0-2.67a.901.901 0 100 1.803.901.901 0 000-1.802z" fill="#000"/><circle cx="24" cy="15" r="4" fill="#FEFEFE"/><path d="M25.313 18H24.25v-5.137l-1.57.536v-.901l2.497-.918h.136V18z" fill="#000"/></svg>